<?xml version="1.0" encoding="utf-8" standalone="no"?>
<!DOCTYPE svg PUBLIC "-//W3C//DTD SVG 1.1//EN"
  "http://www.w3.org/Graphics/SVG/1.1/DTD/svg11.dtd">
<svg xmlns:xlink="http://www.w3.org/1999/xlink" width="460.8pt" height="345.6pt" viewBox="0 0 460.8 345.6" xmlns="http://www.w3.org/2000/svg" version="1.1">
 <metadata>
  <rdf:RDF xmlns:dc="http://purl.org/dc/elements/1.1/" xmlns:cc="http://creativecommons.org/ns#" xmlns:rdf="http://www.w3.org/1999/02/22-rdf-syntax-ns#">
   <cc:Work>
    <dc:type rdf:resource="http://purl.org/dc/dcmitype/StillImage"/>
    <dc:date>2024-08-11T15:03:58.829999</dc:date>
    <dc:format>image/svg+xml</dc:format>
    <dc:creator>
     <cc:Agent>
      <dc:title>Matplotlib v3.9.1.post1, https://matplotlib.org/</dc:title>
     </cc:Agent>
    </dc:creator>
   </cc:Work>
  </rdf:RDF>
 </metadata>
 <defs>
  <style type="text/css">*{stroke-linejoin: round; stroke-linecap: butt}</style>
 </defs>
 <g id="figure_1">
  <g id="patch_1">
   <path d="M 0 345.6 
L 460.8 345.6 
L 460.8 0 
L 0 0 
z
" style="fill: #ffffff"/>
  </g>
  <g id="axes_1">
   <g id="patch_2">
    <path d="M 57.6 307.584 
L 414.72 307.584 
L 414.72 41.472 
L 57.6 41.472 
z
" style="fill: #ffffff"/>
   </g>
   <g id="matplotlib.axis_1">
    <g id="xtick_1">
     <g id="line2d_1">
      <defs>
       <path id="m92b1da5152" d="M 0 0 
L 0 3.5 
" style="stroke: #000000; stroke-width: 0.8"/>
      </defs>
      <g>
       <use xlink:href="#m92b1da5152" x="70.519926" y="307.584" style="stroke: #000000; stroke-width: 0.8"/>
      </g>
     </g>
     <g id="text_1">
      <!-- 0 -->
      <g transform="translate(67.338676 322.182437) scale(0.1 -0.1)">
       <defs>
        <path id="DejaVuSans-30" d="M 2034 4250 
Q 1547 4250 1301 3770 
Q 1056 3291 1056 2328 
Q 1056 1369 1301 889 
Q 1547 409 2034 409 
Q 2525 409 2770 889 
Q 3016 1369 3016 2328 
Q 3016 3291 2770 3770 
Q 2525 4250 2034 4250 
z
M 2034 4750 
Q 2819 4750 3233 4129 
Q 3647 3509 3647 2328 
Q 3647 1150 3233 529 
Q 2819 -91 2034 -91 
Q 1250 -91 836 529 
Q 422 1150 422 2328 
Q 422 3509 836 4129 
Q 1250 4750 2034 4750 
z
" transform="scale(0.015625)"/>
       </defs>
       <use xlink:href="#DejaVuSans-30"/>
      </g>
     </g>
    </g>
    <g id="xtick_2">
     <g id="line2d_2">
      <g>
       <use xlink:href="#m92b1da5152" x="136.775955" y="307.584" style="stroke: #000000; stroke-width: 0.8"/>
      </g>
     </g>
     <g id="text_2">
      <!-- 20 -->
      <g transform="translate(130.413455 322.182437) scale(0.1 -0.1)">
       <defs>
        <path id="DejaVuSans-32" d="M 1228 531 
L 3431 531 
L 3431 0 
L 469 0 
L 469 531 
Q 828 903 1448 1529 
Q 2069 2156 2228 2338 
Q 2531 2678 2651 2914 
Q 2772 3150 2772 3378 
Q 2772 3750 2511 3984 
Q 2250 4219 1831 4219 
Q 1534 4219 1204 4116 
Q 875 4013 500 3803 
L 500 4441 
Q 881 4594 1212 4672 
Q 1544 4750 1819 4750 
Q 2544 4750 2975 4387 
Q 3406 4025 3406 3419 
Q 3406 3131 3298 2873 
Q 3191 2616 2906 2266 
Q 2828 2175 2409 1742 
Q 1991 1309 1228 531 
z
" transform="scale(0.015625)"/>
       </defs>
       <use xlink:href="#DejaVuSans-32"/>
       <use xlink:href="#DejaVuSans-30" x="63.623047"/>
      </g>
     </g>
    </g>
    <g id="xtick_3">
     <g id="line2d_3">
      <g>
       <use xlink:href="#m92b1da5152" x="203.031985" y="307.584" style="stroke: #000000; stroke-width: 0.8"/>
      </g>
     </g>
     <g id="text_3">
      <!-- 40 -->
      <g transform="translate(196.669485 322.182437) scale(0.1 -0.1)">
       <defs>
        <path id="DejaVuSans-34" d="M 2419 4116 
L 825 1625 
L 2419 1625 
L 2419 4116 
z
M 2253 4666 
L 3047 4666 
L 3047 1625 
L 3713 1625 
L 3713 1100 
L 3047 1100 
L 3047 0 
L 2419 0 
L 2419 1100 
L 313 1100 
L 313 1709 
L 2253 4666 
z
" transform="scale(0.015625)"/>
       </defs>
       <use xlink:href="#DejaVuSans-34"/>
       <use xlink:href="#DejaVuSans-30" x="63.623047"/>
      </g>
     </g>
    </g>
    <g id="xtick_4">
     <g id="line2d_4">
      <g>
       <use xlink:href="#m92b1da5152" x="269.288015" y="307.584" style="stroke: #000000; stroke-width: 0.8"/>
      </g>
     </g>
     <g id="text_4">
      <!-- 60 -->
      <g transform="translate(262.925515 322.182437) scale(0.1 -0.1)">
       <defs>
        <path id="DejaVuSans-36" d="M 2113 2584 
Q 1688 2584 1439 2293 
Q 1191 2003 1191 1497 
Q 1191 994 1439 701 
Q 1688 409 2113 409 
Q 2538 409 2786 701 
Q 3034 994 3034 1497 
Q 3034 2003 2786 2293 
Q 2538 2584 2113 2584 
z
M 3366 4563 
L 3366 3988 
Q 3128 4100 2886 4159 
Q 2644 4219 2406 4219 
Q 1781 4219 1451 3797 
Q 1122 3375 1075 2522 
Q 1259 2794 1537 2939 
Q 1816 3084 2150 3084 
Q 2853 3084 3261 2657 
Q 3669 2231 3669 1497 
Q 3669 778 3244 343 
Q 2819 -91 2113 -91 
Q 1303 -91 875 529 
Q 447 1150 447 2328 
Q 447 3434 972 4092 
Q 1497 4750 2381 4750 
Q 2619 4750 2861 4703 
Q 3103 4656 3366 4563 
z
" transform="scale(0.015625)"/>
       </defs>
       <use xlink:href="#DejaVuSans-36"/>
       <use xlink:href="#DejaVuSans-30" x="63.623047"/>
      </g>
     </g>
    </g>
    <g id="xtick_5">
     <g id="line2d_5">
      <g>
       <use xlink:href="#m92b1da5152" x="335.544045" y="307.584" style="stroke: #000000; stroke-width: 0.8"/>
      </g>
     </g>
     <g id="text_5">
      <!-- 80 -->
      <g transform="translate(329.181545 322.182437) scale(0.1 -0.1)">
       <defs>
        <path id="DejaVuSans-38" d="M 2034 2216 
Q 1584 2216 1326 1975 
Q 1069 1734 1069 1313 
Q 1069 891 1326 650 
Q 1584 409 2034 409 
Q 2484 409 2743 651 
Q 3003 894 3003 1313 
Q 3003 1734 2745 1975 
Q 2488 2216 2034 2216 
z
M 1403 2484 
Q 997 2584 770 2862 
Q 544 3141 544 3541 
Q 544 4100 942 4425 
Q 1341 4750 2034 4750 
Q 2731 4750 3128 4425 
Q 3525 4100 3525 3541 
Q 3525 3141 3298 2862 
Q 3072 2584 2669 2484 
Q 3125 2378 3379 2068 
Q 3634 1759 3634 1313 
Q 3634 634 3220 271 
Q 2806 -91 2034 -91 
Q 1263 -91 848 271 
Q 434 634 434 1313 
Q 434 1759 690 2068 
Q 947 2378 1403 2484 
z
M 1172 3481 
Q 1172 3119 1398 2916 
Q 1625 2713 2034 2713 
Q 2441 2713 2670 2916 
Q 2900 3119 2900 3481 
Q 2900 3844 2670 4047 
Q 2441 4250 2034 4250 
Q 1625 4250 1398 4047 
Q 1172 3844 1172 3481 
z
" transform="scale(0.015625)"/>
       </defs>
       <use xlink:href="#DejaVuSans-38"/>
       <use xlink:href="#DejaVuSans-30" x="63.623047"/>
      </g>
     </g>
    </g>
    <g id="xtick_6">
     <g id="line2d_6">
      <g>
       <use xlink:href="#m92b1da5152" x="401.800074" y="307.584" style="stroke: #000000; stroke-width: 0.8"/>
      </g>
     </g>
     <g id="text_6">
      <!-- 100 -->
      <g transform="translate(392.256324 322.182437) scale(0.1 -0.1)">
       <defs>
        <path id="DejaVuSans-31" d="M 794 531 
L 1825 531 
L 1825 4091 
L 703 3866 
L 703 4441 
L 1819 4666 
L 2450 4666 
L 2450 531 
L 3481 531 
L 3481 0 
L 794 0 
L 794 531 
z
" transform="scale(0.015625)"/>
       </defs>
       <use xlink:href="#DejaVuSans-31"/>
       <use xlink:href="#DejaVuSans-30" x="63.623047"/>
       <use xlink:href="#DejaVuSans-30" x="127.246094"/>
      </g>
     </g>
    </g>
    <g id="text_7">
     <!-- Generation -->
     <g transform="translate(208.267031 335.860562) scale(0.1 -0.1)">
      <defs>
       <path id="DejaVuSans-47" d="M 3809 666 
L 3809 1919 
L 2778 1919 
L 2778 2438 
L 4434 2438 
L 4434 434 
Q 4069 175 3628 42 
Q 3188 -91 2688 -91 
Q 1594 -91 976 548 
Q 359 1188 359 2328 
Q 359 3472 976 4111 
Q 1594 4750 2688 4750 
Q 3144 4750 3555 4637 
Q 3966 4525 4313 4306 
L 4313 3634 
Q 3963 3931 3569 4081 
Q 3175 4231 2741 4231 
Q 1884 4231 1454 3753 
Q 1025 3275 1025 2328 
Q 1025 1384 1454 906 
Q 1884 428 2741 428 
Q 3075 428 3337 486 
Q 3600 544 3809 666 
z
" transform="scale(0.015625)"/>
       <path id="DejaVuSans-65" d="M 3597 1894 
L 3597 1613 
L 953 1613 
Q 991 1019 1311 708 
Q 1631 397 2203 397 
Q 2534 397 2845 478 
Q 3156 559 3463 722 
L 3463 178 
Q 3153 47 2828 -22 
Q 2503 -91 2169 -91 
Q 1331 -91 842 396 
Q 353 884 353 1716 
Q 353 2575 817 3079 
Q 1281 3584 2069 3584 
Q 2775 3584 3186 3129 
Q 3597 2675 3597 1894 
z
M 3022 2063 
Q 3016 2534 2758 2815 
Q 2500 3097 2075 3097 
Q 1594 3097 1305 2825 
Q 1016 2553 972 2059 
L 3022 2063 
z
" transform="scale(0.015625)"/>
       <path id="DejaVuSans-6e" d="M 3513 2113 
L 3513 0 
L 2938 0 
L 2938 2094 
Q 2938 2591 2744 2837 
Q 2550 3084 2163 3084 
Q 1697 3084 1428 2787 
Q 1159 2491 1159 1978 
L 1159 0 
L 581 0 
L 581 3500 
L 1159 3500 
L 1159 2956 
Q 1366 3272 1645 3428 
Q 1925 3584 2291 3584 
Q 2894 3584 3203 3211 
Q 3513 2838 3513 2113 
z
" transform="scale(0.015625)"/>
       <path id="DejaVuSans-72" d="M 2631 2963 
Q 2534 3019 2420 3045 
Q 2306 3072 2169 3072 
Q 1681 3072 1420 2755 
Q 1159 2438 1159 1844 
L 1159 0 
L 581 0 
L 581 3500 
L 1159 3500 
L 1159 2956 
Q 1341 3275 1631 3429 
Q 1922 3584 2338 3584 
Q 2397 3584 2469 3576 
Q 2541 3569 2628 3553 
L 2631 2963 
z
" transform="scale(0.015625)"/>
       <path id="DejaVuSans-61" d="M 2194 1759 
Q 1497 1759 1228 1600 
Q 959 1441 959 1056 
Q 959 750 1161 570 
Q 1363 391 1709 391 
Q 2188 391 2477 730 
Q 2766 1069 2766 1631 
L 2766 1759 
L 2194 1759 
z
M 3341 1997 
L 3341 0 
L 2766 0 
L 2766 531 
Q 2569 213 2275 61 
Q 1981 -91 1556 -91 
Q 1019 -91 701 211 
Q 384 513 384 1019 
Q 384 1609 779 1909 
Q 1175 2209 1959 2209 
L 2766 2209 
L 2766 2266 
Q 2766 2663 2505 2880 
Q 2244 3097 1772 3097 
Q 1472 3097 1187 3025 
Q 903 2953 641 2809 
L 641 3341 
Q 956 3463 1253 3523 
Q 1550 3584 1831 3584 
Q 2591 3584 2966 3190 
Q 3341 2797 3341 1997 
z
" transform="scale(0.015625)"/>
       <path id="DejaVuSans-74" d="M 1172 4494 
L 1172 3500 
L 2356 3500 
L 2356 3053 
L 1172 3053 
L 1172 1153 
Q 1172 725 1289 603 
Q 1406 481 1766 481 
L 2356 481 
L 2356 0 
L 1766 0 
Q 1100 0 847 248 
Q 594 497 594 1153 
L 594 3053 
L 172 3053 
L 172 3500 
L 594 3500 
L 594 4494 
L 1172 4494 
z
" transform="scale(0.015625)"/>
       <path id="DejaVuSans-69" d="M 603 3500 
L 1178 3500 
L 1178 0 
L 603 0 
L 603 3500 
z
M 603 4863 
L 1178 4863 
L 1178 4134 
L 603 4134 
L 603 4863 
z
" transform="scale(0.015625)"/>
       <path id="DejaVuSans-6f" d="M 1959 3097 
Q 1497 3097 1228 2736 
Q 959 2375 959 1747 
Q 959 1119 1226 758 
Q 1494 397 1959 397 
Q 2419 397 2687 759 
Q 2956 1122 2956 1747 
Q 2956 2369 2687 2733 
Q 2419 3097 1959 3097 
z
M 1959 3584 
Q 2709 3584 3137 3096 
Q 3566 2609 3566 1747 
Q 3566 888 3137 398 
Q 2709 -91 1959 -91 
Q 1206 -91 779 398 
Q 353 888 353 1747 
Q 353 2609 779 3096 
Q 1206 3584 1959 3584 
z
" transform="scale(0.015625)"/>
      </defs>
      <use xlink:href="#DejaVuSans-47"/>
      <use xlink:href="#DejaVuSans-65" x="77.490234"/>
      <use xlink:href="#DejaVuSans-6e" x="139.013672"/>
      <use xlink:href="#DejaVuSans-65" x="202.392578"/>
      <use xlink:href="#DejaVuSans-72" x="263.916016"/>
      <use xlink:href="#DejaVuSans-61" x="305.029297"/>
      <use xlink:href="#DejaVuSans-74" x="366.308594"/>
      <use xlink:href="#DejaVuSans-69" x="405.517578"/>
      <use xlink:href="#DejaVuSans-6f" x="433.300781"/>
      <use xlink:href="#DejaVuSans-6e" x="494.482422"/>
     </g>
    </g>
   </g>
   <g id="matplotlib.axis_2">
    <g id="ytick_1">
     <g id="line2d_7">
      <defs>
       <path id="m1eeaa7289e" d="M 0 0 
L -3.5 0 
" style="stroke: #000000; stroke-width: 0.8"/>
      </defs>
      <g>
       <use xlink:href="#m1eeaa7289e" x="57.6" y="295.488" style="stroke: #000000; stroke-width: 0.8"/>
      </g>
     </g>
     <g id="text_8">
      <!-- −200 -->
      <g transform="translate(23.132812 299.287219) scale(0.1 -0.1)">
       <defs>
        <path id="DejaVuSans-2212" d="M 678 2272 
L 4684 2272 
L 4684 1741 
L 678 1741 
L 678 2272 
z
" transform="scale(0.015625)"/>
       </defs>
       <use xlink:href="#DejaVuSans-2212"/>
       <use xlink:href="#DejaVuSans-32" x="83.789062"/>
       <use xlink:href="#DejaVuSans-30" x="147.412109"/>
       <use xlink:href="#DejaVuSans-30" x="211.035156"/>
      </g>
     </g>
    </g>
    <g id="ytick_2">
     <g id="line2d_8">
      <g>
       <use xlink:href="#m1eeaa7289e" x="57.6" y="252.288" style="stroke: #000000; stroke-width: 0.8"/>
      </g>
     </g>
     <g id="text_9">
      <!-- −180 -->
      <g transform="translate(23.132812 256.087219) scale(0.1 -0.1)">
       <use xlink:href="#DejaVuSans-2212"/>
       <use xlink:href="#DejaVuSans-31" x="83.789062"/>
       <use xlink:href="#DejaVuSans-38" x="147.412109"/>
       <use xlink:href="#DejaVuSans-30" x="211.035156"/>
      </g>
     </g>
    </g>
    <g id="ytick_3">
     <g id="line2d_9">
      <g>
       <use xlink:href="#m1eeaa7289e" x="57.6" y="209.088" style="stroke: #000000; stroke-width: 0.8"/>
      </g>
     </g>
     <g id="text_10">
      <!-- −160 -->
      <g transform="translate(23.132812 212.887219) scale(0.1 -0.1)">
       <use xlink:href="#DejaVuSans-2212"/>
       <use xlink:href="#DejaVuSans-31" x="83.789062"/>
       <use xlink:href="#DejaVuSans-36" x="147.412109"/>
       <use xlink:href="#DejaVuSans-30" x="211.035156"/>
      </g>
     </g>
    </g>
    <g id="ytick_4">
     <g id="line2d_10">
      <g>
       <use xlink:href="#m1eeaa7289e" x="57.6" y="165.888" style="stroke: #000000; stroke-width: 0.8"/>
      </g>
     </g>
     <g id="text_11">
      <!-- −140 -->
      <g transform="translate(23.132812 169.687219) scale(0.1 -0.1)">
       <use xlink:href="#DejaVuSans-2212"/>
       <use xlink:href="#DejaVuSans-31" x="83.789062"/>
       <use xlink:href="#DejaVuSans-34" x="147.412109"/>
       <use xlink:href="#DejaVuSans-30" x="211.035156"/>
      </g>
     </g>
    </g>
    <g id="ytick_5">
     <g id="line2d_11">
      <g>
       <use xlink:href="#m1eeaa7289e" x="57.6" y="122.688" style="stroke: #000000; stroke-width: 0.8"/>
      </g>
     </g>
     <g id="text_12">
      <!-- −120 -->
      <g transform="translate(23.132812 126.487219) scale(0.1 -0.1)">
       <use xlink:href="#DejaVuSans-2212"/>
       <use xlink:href="#DejaVuSans-31" x="83.789062"/>
       <use xlink:href="#DejaVuSans-32" x="147.412109"/>
       <use xlink:href="#DejaVuSans-30" x="211.035156"/>
      </g>
     </g>
    </g>
    <g id="ytick_6">
     <g id="line2d_12">
      <g>
       <use xlink:href="#m1eeaa7289e" x="57.6" y="79.488" style="stroke: #000000; stroke-width: 0.8"/>
      </g>
     </g>
     <g id="text_13">
      <!-- −100 -->
      <g transform="translate(23.132812 83.287219) scale(0.1 -0.1)">
       <use xlink:href="#DejaVuSans-2212"/>
       <use xlink:href="#DejaVuSans-31" x="83.789062"/>
       <use xlink:href="#DejaVuSans-30" x="147.412109"/>
       <use xlink:href="#DejaVuSans-30" x="211.035156"/>
      </g>
     </g>
    </g>
    <g id="text_14">
     <!-- Fitness -->
     <g transform="translate(17.053125 191.845187) rotate(-90) scale(0.1 -0.1)">
      <defs>
       <path id="DejaVuSans-46" d="M 628 4666 
L 3309 4666 
L 3309 4134 
L 1259 4134 
L 1259 2759 
L 3109 2759 
L 3109 2228 
L 1259 2228 
L 1259 0 
L 628 0 
L 628 4666 
z
" transform="scale(0.015625)"/>
       <path id="DejaVuSans-73" d="M 2834 3397 
L 2834 2853 
Q 2591 2978 2328 3040 
Q 2066 3103 1784 3103 
Q 1356 3103 1142 2972 
Q 928 2841 928 2578 
Q 928 2378 1081 2264 
Q 1234 2150 1697 2047 
L 1894 2003 
Q 2506 1872 2764 1633 
Q 3022 1394 3022 966 
Q 3022 478 2636 193 
Q 2250 -91 1575 -91 
Q 1294 -91 989 -36 
Q 684 19 347 128 
L 347 722 
Q 666 556 975 473 
Q 1284 391 1588 391 
Q 1994 391 2212 530 
Q 2431 669 2431 922 
Q 2431 1156 2273 1281 
Q 2116 1406 1581 1522 
L 1381 1569 
Q 847 1681 609 1914 
Q 372 2147 372 2553 
Q 372 3047 722 3315 
Q 1072 3584 1716 3584 
Q 2034 3584 2315 3537 
Q 2597 3491 2834 3397 
z
" transform="scale(0.015625)"/>
      </defs>
      <use xlink:href="#DejaVuSans-46"/>
      <use xlink:href="#DejaVuSans-69" x="50.269531"/>
      <use xlink:href="#DejaVuSans-74" x="78.052734"/>
      <use xlink:href="#DejaVuSans-6e" x="117.261719"/>
      <use xlink:href="#DejaVuSans-65" x="180.640625"/>
      <use xlink:href="#DejaVuSans-73" x="242.164062"/>
      <use xlink:href="#DejaVuSans-73" x="294.263672"/>
     </g>
    </g>
   </g>
   <g id="line2d_13">
    <path d="M 73.832727 295.488 
L 77.145529 295.488 
L 80.45833 295.488 
L 83.771132 295.488 
L 87.083933 254.448 
L 90.396735 124.848 
L 93.709536 124.848 
L 97.022338 124.848 
L 100.335139 124.848 
L 103.647941 124.848 
L 106.960742 124.848 
L 110.273544 124.848 
L 113.586345 124.848 
L 116.899147 124.848 
L 120.211948 124.848 
L 123.52475 124.848 
L 126.837551 124.848 
L 130.150353 109.728 
L 133.463154 109.728 
L 136.775955 109.728 
L 140.088757 109.728 
L 143.401558 109.728 
L 146.71436 109.728 
L 150.027161 109.728 
L 153.339963 109.728 
L 156.652764 109.728 
L 159.965566 109.728 
L 163.278367 109.728 
L 166.591169 109.728 
L 169.90397 109.728 
L 173.216772 109.728 
L 176.529573 109.728 
L 179.842375 109.728 
L 183.155176 109.728 
L 186.467978 109.728 
L 189.780779 109.728 
L 193.093581 109.728 
L 196.406382 109.728 
L 199.719184 109.728 
L 203.031985 109.728 
L 206.344787 109.728 
L 209.657588 109.728 
L 212.97039 109.728 
L 216.283191 109.728 
L 219.595993 109.728 
L 222.908794 109.728 
L 226.221596 109.728 
L 229.534397 109.728 
L 232.847199 109.728 
" clip-path="url(#pf99fe68b95)" style="fill: none; stroke: #1f77b4; stroke-width: 1.5; stroke-linecap: square"/>
   </g>
   <g id="line2d_14">
    <path d="M 73.832727 295.488 
L 77.145529 295.488 
L 80.45833 295.488 
L 83.771132 295.488 
L 87.083933 295.488 
L 90.396735 295.488 
L 93.709536 295.488 
L 97.022338 295.488 
L 100.335139 295.488 
L 103.647941 295.488 
L 106.960742 295.488 
L 110.273544 295.488 
L 113.586345 295.488 
L 116.899147 295.488 
L 120.211948 295.488 
L 123.52475 295.488 
L 126.837551 295.488 
L 130.150353 295.488 
L 133.463154 295.488 
L 136.775955 295.488 
L 140.088757 295.488 
L 143.401558 295.488 
L 146.71436 295.488 
L 150.027161 295.488 
L 153.339963 295.488 
L 156.652764 295.488 
L 159.965566 295.488 
L 163.278367 295.488 
L 166.591169 295.488 
L 169.90397 295.488 
L 173.216772 295.488 
L 176.529573 295.488 
L 179.842375 295.488 
L 183.155176 295.488 
L 186.467978 295.488 
L 189.780779 295.488 
L 193.093581 295.488 
L 196.406382 295.488 
L 199.719184 295.488 
L 203.031985 295.488 
L 206.344787 295.488 
L 209.657588 295.488 
L 212.97039 295.488 
L 216.283191 295.488 
L 219.595993 295.488 
L 222.908794 295.488 
L 226.221596 295.488 
L 229.534397 295.488 
L 232.847199 295.488 
" clip-path="url(#pf99fe68b95)" style="fill: none; stroke: #ff7f0e; stroke-width: 1.5; stroke-linecap: square"/>
   </g>
   <g id="line2d_15">
    <path d="M 73.832727 295.488 
L 77.145529 295.488 
L 80.45833 295.488 
L 83.771132 295.488 
L 87.083933 295.488 
L 90.396735 295.488 
L 93.709536 295.488 
L 97.022338 295.488 
L 100.335139 295.488 
L 103.647941 295.488 
L 106.960742 295.488 
L 110.273544 295.488 
L 113.586345 295.488 
L 116.899147 295.488 
L 120.211948 295.488 
L 123.52475 295.488 
L 126.837551 295.488 
L 130.150353 295.488 
L 133.463154 295.488 
L 136.775955 295.488 
L 140.088757 295.488 
L 143.401558 295.488 
L 146.71436 295.488 
L 150.027161 295.488 
L 153.339963 295.488 
L 156.652764 295.488 
L 159.965566 295.488 
L 163.278367 295.488 
L 166.591169 295.488 
L 169.90397 295.488 
L 173.216772 295.488 
L 176.529573 295.488 
L 179.842375 295.488 
L 183.155176 295.488 
L 186.467978 295.488 
L 189.780779 295.488 
L 193.093581 295.488 
L 196.406382 295.488 
L 199.719184 295.488 
L 203.031985 295.488 
L 206.344787 295.488 
L 209.657588 295.488 
L 212.97039 295.488 
L 216.283191 295.488 
L 219.595993 295.488 
L 222.908794 295.488 
L 226.221596 295.488 
L 229.534397 295.488 
L 232.847199 295.488 
" clip-path="url(#pf99fe68b95)" style="fill: none; stroke: #2ca02c; stroke-width: 1.5; stroke-linecap: square"/>
   </g>
   <g id="line2d_16">
    <path d="M 73.832727 295.488 
L 77.145529 131.328 
L 80.45833 124.848 
L 83.771132 122.688 
L 87.083933 111.888 
L 90.396735 111.888 
L 93.709536 111.888 
L 97.022338 111.888 
L 100.335139 111.888 
L 103.647941 111.888 
L 106.960742 111.888 
L 110.273544 111.888 
L 113.586345 111.888 
L 116.899147 111.888 
L 120.211948 109.728 
L 123.52475 109.728 
L 126.837551 109.728 
L 130.150353 109.728 
L 133.463154 109.728 
L 136.775955 109.728 
L 140.088757 109.728 
L 143.401558 109.728 
L 146.71436 109.728 
L 150.027161 109.728 
L 153.339963 109.728 
L 156.652764 109.728 
L 159.965566 109.728 
L 163.278367 109.728 
L 166.591169 109.728 
L 169.90397 109.728 
L 173.216772 109.728 
L 176.529573 109.728 
L 179.842375 109.728 
L 183.155176 109.728 
L 186.467978 109.728 
L 189.780779 109.728 
L 193.093581 109.728 
L 196.406382 109.728 
L 199.719184 109.728 
L 203.031985 109.728 
L 206.344787 109.728 
L 209.657588 109.728 
L 212.97039 109.728 
L 216.283191 109.728 
L 219.595993 109.728 
L 222.908794 109.728 
L 226.221596 109.728 
L 229.534397 109.728 
L 232.847199 109.728 
" clip-path="url(#pf99fe68b95)" style="fill: none; stroke: #d62728; stroke-width: 1.5; stroke-linecap: square"/>
   </g>
   <g id="line2d_17">
    <path d="M 73.832727 295.488 
L 77.145529 295.488 
L 80.45833 122.688 
L 83.771132 122.688 
L 87.083933 122.688 
L 90.396735 122.688 
L 93.709536 114.048 
L 97.022338 111.888 
L 100.335139 111.888 
L 103.647941 111.888 
L 106.960742 111.888 
L 110.273544 111.888 
L 113.586345 111.888 
L 116.899147 111.888 
L 120.211948 111.888 
L 123.52475 111.888 
L 126.837551 111.888 
L 130.150353 111.888 
L 133.463154 111.888 
L 136.775955 111.888 
L 140.088757 111.888 
L 143.401558 111.888 
L 146.71436 111.888 
L 150.027161 111.888 
L 153.339963 111.888 
L 156.652764 111.888 
L 159.965566 111.888 
L 163.278367 111.888 
L 166.591169 111.888 
L 169.90397 111.888 
L 173.216772 111.888 
L 176.529573 111.888 
L 179.842375 111.888 
L 183.155176 111.888 
L 186.467978 111.888 
L 189.780779 111.888 
L 193.093581 111.888 
L 196.406382 111.888 
L 199.719184 111.888 
L 203.031985 111.888 
L 206.344787 111.888 
L 209.657588 111.888 
L 212.97039 111.888 
L 216.283191 111.888 
L 219.595993 111.888 
L 222.908794 111.888 
L 226.221596 111.888 
L 229.534397 111.888 
L 232.847199 111.888 
" clip-path="url(#pf99fe68b95)" style="fill: none; stroke: #9467bd; stroke-width: 1.5; stroke-linecap: square"/>
   </g>
   <g id="line2d_18">
    <path d="M 73.832727 295.488 
L 77.145529 295.488 
L 80.45833 295.488 
L 83.771132 295.488 
L 87.083933 295.488 
L 90.396735 295.488 
L 93.709536 295.488 
L 97.022338 295.488 
L 100.335139 295.488 
L 103.647941 295.488 
L 106.960742 245.808 
L 110.273544 245.808 
L 113.586345 245.808 
L 116.899147 245.808 
L 120.211948 245.808 
L 123.52475 232.848 
L 126.837551 232.848 
L 130.150353 230.688 
L 133.463154 226.368 
L 136.775955 226.368 
L 140.088757 226.368 
L 143.401558 226.368 
L 146.71436 226.368 
L 150.027161 226.368 
L 153.339963 226.368 
L 156.652764 226.368 
L 159.965566 226.368 
L 163.278367 226.368 
L 166.591169 226.368 
L 169.90397 226.368 
L 173.216772 131.328 
L 176.529573 111.888 
L 179.842375 111.888 
L 183.155176 111.888 
L 186.467978 109.728 
L 189.780779 109.728 
L 193.093581 109.728 
L 196.406382 109.728 
L 199.719184 109.728 
L 203.031985 109.728 
L 206.344787 109.728 
L 209.657588 109.728 
L 212.97039 109.728 
L 216.283191 109.728 
L 219.595993 109.728 
L 222.908794 109.728 
L 226.221596 109.728 
L 229.534397 109.728 
L 232.847199 109.728 
" clip-path="url(#pf99fe68b95)" style="fill: none; stroke: #8c564b; stroke-width: 1.5; stroke-linecap: square"/>
   </g>
   <g id="line2d_19">
    <path d="M 73.832727 295.488 
L 77.145529 284.688 
L 80.45833 284.688 
L 83.771132 284.688 
L 87.083933 284.688 
L 90.396735 284.688 
L 93.709536 284.688 
L 97.022338 284.688 
L 100.335139 284.688 
L 103.647941 284.688 
L 106.960742 284.688 
L 110.273544 284.688 
L 113.586345 284.688 
L 116.899147 284.688 
L 120.211948 284.688 
L 123.52475 284.688 
L 126.837551 284.688 
L 130.150353 284.688 
L 133.463154 284.688 
L 136.775955 284.688 
L 140.088757 284.688 
L 143.401558 284.688 
L 146.71436 284.688 
L 150.027161 284.688 
L 153.339963 284.688 
L 156.652764 284.688 
L 159.965566 284.688 
L 163.278367 284.688 
L 166.591169 284.688 
L 169.90397 284.688 
L 173.216772 284.688 
L 176.529573 284.688 
L 179.842375 284.688 
L 183.155176 284.688 
L 186.467978 284.688 
L 189.780779 284.688 
L 193.093581 284.688 
L 196.406382 284.688 
L 199.719184 284.688 
L 203.031985 135.648 
L 206.344787 122.688 
L 209.657588 122.688 
L 212.97039 122.688 
L 216.283191 122.688 
L 219.595993 122.688 
L 222.908794 122.688 
L 226.221596 122.688 
L 229.534397 122.688 
L 232.847199 122.688 
" clip-path="url(#pf99fe68b95)" style="fill: none; stroke: #e377c2; stroke-width: 1.5; stroke-linecap: square"/>
   </g>
   <g id="line2d_20">
    <path d="M 73.832727 295.488 
L 77.145529 295.488 
L 80.45833 295.488 
L 83.771132 295.488 
L 87.083933 295.488 
L 90.396735 295.488 
L 93.709536 295.488 
L 97.022338 295.488 
L 100.335139 295.488 
L 103.647941 295.488 
L 106.960742 295.488 
L 110.273544 295.488 
L 113.586345 295.488 
L 116.899147 295.488 
L 120.211948 295.488 
L 123.52475 295.488 
L 126.837551 295.488 
L 130.150353 295.488 
L 133.463154 256.608 
L 136.775955 254.448 
L 140.088757 254.448 
L 143.401558 254.448 
L 146.71436 254.448 
L 150.027161 254.448 
L 153.339963 254.448 
L 156.652764 254.448 
L 159.965566 252.288 
L 163.278367 247.968 
L 166.591169 247.968 
L 169.90397 245.808 
L 173.216772 245.808 
L 176.529573 245.808 
L 179.842375 245.808 
L 183.155176 245.808 
L 186.467978 245.808 
L 189.780779 245.808 
L 193.093581 245.808 
L 196.406382 245.808 
L 199.719184 245.808 
L 203.031985 245.808 
L 206.344787 245.808 
L 209.657588 245.808 
L 212.97039 245.808 
L 216.283191 245.808 
L 219.595993 245.808 
L 222.908794 245.808 
L 226.221596 245.808 
L 229.534397 245.808 
L 232.847199 245.808 
" clip-path="url(#pf99fe68b95)" style="fill: none; stroke: #7f7f7f; stroke-width: 1.5; stroke-linecap: square"/>
   </g>
   <g id="line2d_21">
    <path d="M 73.832727 295.488 
L 77.145529 295.488 
L 80.45833 295.488 
L 83.771132 295.488 
L 87.083933 295.488 
L 90.396735 295.488 
L 93.709536 295.488 
L 97.022338 295.488 
L 100.335139 295.488 
L 103.647941 295.488 
L 106.960742 295.488 
L 110.273544 295.488 
L 113.586345 295.488 
L 116.899147 295.488 
L 120.211948 295.488 
L 123.52475 295.488 
L 126.837551 295.488 
L 130.150353 295.488 
L 133.463154 295.488 
L 136.775955 295.488 
L 140.088757 295.488 
L 143.401558 295.488 
L 146.71436 295.488 
L 150.027161 295.488 
L 153.339963 295.488 
L 156.652764 295.488 
L 159.965566 295.488 
L 163.278367 295.488 
L 166.591169 295.488 
L 169.90397 295.488 
L 173.216772 295.488 
L 176.529573 295.488 
L 179.842375 295.488 
L 183.155176 295.488 
L 186.467978 295.488 
L 189.780779 295.488 
L 193.093581 107.568 
L 196.406382 107.568 
L 199.719184 107.568 
L 203.031985 107.568 
L 206.344787 107.568 
L 209.657588 107.568 
L 212.97039 107.568 
L 216.283191 107.568 
L 219.595993 107.568 
L 222.908794 107.568 
L 226.221596 107.568 
L 229.534397 107.568 
L 232.847199 107.568 
L 236.16 107.568 
L 239.472801 107.568 
L 242.785603 107.568 
L 246.098404 107.568 
L 249.411206 107.568 
L 252.724007 107.568 
L 256.036809 107.568 
L 259.34961 107.568 
L 262.662412 107.568 
L 265.975213 107.568 
L 269.288015 107.568 
L 272.600816 107.568 
L 275.913618 107.568 
L 279.226419 107.568 
L 282.539221 107.568 
L 285.852022 107.568 
L 289.164824 107.568 
L 292.477625 107.568 
L 295.790427 107.568 
L 299.103228 107.568 
L 302.41603 107.568 
L 305.728831 107.568 
L 309.041633 107.568 
L 312.354434 107.568 
L 315.667236 107.568 
L 318.980037 107.568 
L 322.292839 107.568 
L 325.60564 107.568 
L 328.918442 107.568 
L 332.231243 107.568 
L 335.544045 107.568 
L 338.856846 107.568 
L 342.169647 107.568 
L 345.482449 107.568 
L 348.79525 107.568 
L 352.108052 107.568 
L 355.420853 107.568 
L 358.733655 107.568 
L 362.046456 107.568 
L 365.359258 107.568 
L 368.672059 107.568 
L 371.984861 107.568 
L 375.297662 107.568 
L 378.610464 107.568 
L 381.923265 107.568 
L 385.236067 107.568 
L 388.548868 107.568 
L 391.86167 107.568 
L 395.174471 107.568 
L 398.487273 107.568 
" clip-path="url(#pf99fe68b95)" style="fill: none; stroke: #bcbd22; stroke-width: 1.5; stroke-linecap: square"/>
   </g>
   <g id="line2d_22">
    <path d="M 73.832727 122.688 
L 77.145529 114.048 
L 80.45833 111.888 
L 83.771132 111.888 
L 87.083933 111.888 
L 90.396735 111.888 
L 93.709536 111.888 
L 97.022338 111.888 
L 100.335139 111.888 
L 103.647941 111.888 
L 106.960742 111.888 
L 110.273544 111.888 
L 113.586345 111.888 
L 116.899147 111.888 
L 120.211948 111.888 
L 123.52475 111.888 
L 126.837551 111.888 
L 130.150353 111.888 
L 133.463154 111.888 
L 136.775955 111.888 
L 140.088757 111.888 
L 143.401558 111.888 
L 146.71436 111.888 
L 150.027161 111.888 
L 153.339963 111.888 
L 156.652764 111.888 
L 159.965566 111.888 
L 163.278367 111.888 
L 166.591169 111.888 
L 169.90397 111.888 
L 173.216772 111.888 
L 176.529573 111.888 
L 179.842375 111.888 
L 183.155176 111.888 
L 186.467978 111.888 
L 189.780779 111.888 
L 193.093581 111.888 
L 196.406382 111.888 
L 199.719184 111.888 
L 203.031985 111.888 
L 206.344787 111.888 
L 209.657588 111.888 
L 212.97039 111.888 
L 216.283191 111.888 
L 219.595993 111.888 
L 222.908794 111.888 
L 226.221596 111.888 
L 229.534397 111.888 
L 232.847199 111.888 
L 236.16 111.888 
L 239.472801 111.888 
L 242.785603 111.888 
L 246.098404 111.888 
L 249.411206 111.888 
L 252.724007 111.888 
L 256.036809 111.888 
L 259.34961 111.888 
L 262.662412 111.888 
L 265.975213 111.888 
L 269.288015 111.888 
L 272.600816 111.888 
L 275.913618 111.888 
L 279.226419 111.888 
L 282.539221 111.888 
L 285.852022 111.888 
L 289.164824 111.888 
L 292.477625 111.888 
L 295.790427 111.888 
L 299.103228 111.888 
L 302.41603 111.888 
L 305.728831 111.888 
L 309.041633 111.888 
L 312.354434 111.888 
L 315.667236 111.888 
L 318.980037 111.888 
L 322.292839 111.888 
L 325.60564 111.888 
L 328.918442 111.888 
L 332.231243 111.888 
L 335.544045 111.888 
L 338.856846 111.888 
L 342.169647 111.888 
L 345.482449 111.888 
L 348.79525 111.888 
L 352.108052 111.888 
L 355.420853 111.888 
L 358.733655 111.888 
L 362.046456 111.888 
L 365.359258 111.888 
L 368.672059 111.888 
L 371.984861 111.888 
L 375.297662 111.888 
L 378.610464 111.888 
L 381.923265 111.888 
L 385.236067 111.888 
L 388.548868 111.888 
L 391.86167 111.888 
L 395.174471 111.888 
L 398.487273 111.888 
" clip-path="url(#pf99fe68b95)" style="fill: none; stroke: #17becf; stroke-width: 1.5; stroke-linecap: square"/>
   </g>
   <g id="line2d_23">
    <path d="M 73.832727 122.688 
L 77.145529 122.688 
L 80.45833 122.688 
L 83.771132 122.688 
L 87.083933 122.688 
L 90.396735 122.688 
L 93.709536 122.688 
L 97.022338 122.688 
L 100.335139 122.688 
L 103.647941 122.688 
L 106.960742 122.688 
L 110.273544 122.688 
L 113.586345 122.688 
L 116.899147 122.688 
L 120.211948 122.688 
L 123.52475 122.688 
L 126.837551 122.688 
L 130.150353 122.688 
L 133.463154 122.688 
L 136.775955 122.688 
L 140.088757 122.688 
L 143.401558 122.688 
L 146.71436 122.688 
L 150.027161 122.688 
L 153.339963 122.688 
L 156.652764 122.688 
L 159.965566 122.688 
L 163.278367 122.688 
L 166.591169 111.888 
L 169.90397 111.888 
L 173.216772 111.888 
L 176.529573 111.888 
L 179.842375 111.888 
L 183.155176 111.888 
L 186.467978 111.888 
L 189.780779 111.888 
L 193.093581 111.888 
L 196.406382 109.728 
L 199.719184 109.728 
L 203.031985 109.728 
L 206.344787 109.728 
L 209.657588 109.728 
L 212.97039 109.728 
L 216.283191 109.728 
L 219.595993 109.728 
L 222.908794 109.728 
L 226.221596 109.728 
L 229.534397 109.728 
L 232.847199 109.728 
L 236.16 109.728 
L 239.472801 109.728 
L 242.785603 109.728 
L 246.098404 109.728 
L 249.411206 109.728 
L 252.724007 109.728 
L 256.036809 109.728 
L 259.34961 109.728 
L 262.662412 109.728 
L 265.975213 109.728 
L 269.288015 109.728 
L 272.600816 109.728 
L 275.913618 109.728 
L 279.226419 109.728 
L 282.539221 109.728 
L 285.852022 109.728 
L 289.164824 109.728 
L 292.477625 109.728 
L 295.790427 109.728 
L 299.103228 109.728 
L 302.41603 109.728 
L 305.728831 109.728 
L 309.041633 109.728 
L 312.354434 109.728 
L 315.667236 109.728 
L 318.980037 109.728 
L 322.292839 109.728 
L 325.60564 109.728 
L 328.918442 109.728 
L 332.231243 109.728 
L 335.544045 109.728 
L 338.856846 109.728 
L 342.169647 109.728 
L 345.482449 109.728 
L 348.79525 109.728 
L 352.108052 109.728 
L 355.420853 109.728 
L 358.733655 109.728 
L 362.046456 109.728 
L 365.359258 109.728 
L 368.672059 109.728 
L 371.984861 109.728 
L 375.297662 109.728 
L 378.610464 109.728 
L 381.923265 109.728 
L 385.236067 109.728 
L 388.548868 109.728 
L 391.86167 109.728 
L 395.174471 109.728 
L 398.487273 109.728 
" clip-path="url(#pf99fe68b95)" style="fill: none; stroke: #1f77b4; stroke-width: 1.5; stroke-linecap: square"/>
   </g>
   <g id="line2d_24">
    <path d="M 73.832727 256.608 
L 77.145529 243.648 
L 80.45833 243.648 
L 83.771132 243.648 
L 87.083933 243.648 
L 90.396735 243.648 
L 93.709536 243.648 
L 97.022338 243.648 
L 100.335139 243.648 
L 103.647941 243.648 
L 106.960742 243.648 
L 110.273544 219.888 
L 113.586345 217.728 
L 116.899147 217.728 
L 120.211948 217.728 
L 123.52475 217.728 
L 126.837551 217.728 
L 130.150353 217.728 
L 133.463154 217.728 
L 136.775955 217.728 
L 140.088757 217.728 
L 143.401558 217.728 
L 146.71436 217.728 
L 150.027161 217.728 
L 153.339963 217.728 
L 156.652764 217.728 
L 159.965566 217.728 
L 163.278367 217.728 
L 166.591169 217.728 
L 169.90397 217.728 
L 173.216772 217.728 
L 176.529573 217.728 
L 179.842375 217.728 
L 183.155176 217.728 
L 186.467978 217.728 
L 189.780779 217.728 
L 193.093581 217.728 
L 196.406382 217.728 
L 199.719184 217.728 
L 203.031985 217.728 
L 206.344787 217.728 
L 209.657588 217.728 
L 212.97039 217.728 
L 216.283191 217.728 
L 219.595993 217.728 
L 222.908794 217.728 
L 226.221596 217.728 
L 229.534397 217.728 
L 232.847199 215.568 
L 236.16 215.568 
L 239.472801 215.568 
L 242.785603 215.568 
L 246.098404 215.568 
L 249.411206 215.568 
L 252.724007 215.568 
L 256.036809 215.568 
L 259.34961 215.568 
L 262.662412 215.568 
L 265.975213 215.568 
L 269.288015 215.568 
L 272.600816 215.568 
L 275.913618 215.568 
L 279.226419 215.568 
L 282.539221 215.568 
L 285.852022 215.568 
L 289.164824 215.568 
L 292.477625 215.568 
L 295.790427 215.568 
L 299.103228 215.568 
L 302.41603 215.568 
L 305.728831 215.568 
L 309.041633 215.568 
L 312.354434 215.568 
L 315.667236 215.568 
L 318.980037 215.568 
L 322.292839 215.568 
L 325.60564 215.568 
L 328.918442 215.568 
L 332.231243 215.568 
L 335.544045 215.568 
L 338.856846 215.568 
L 342.169647 215.568 
L 345.482449 215.568 
L 348.79525 215.568 
L 352.108052 215.568 
L 355.420853 215.568 
L 358.733655 215.568 
L 362.046456 215.568 
L 365.359258 215.568 
L 368.672059 215.568 
L 371.984861 215.568 
L 375.297662 215.568 
L 378.610464 215.568 
L 381.923265 215.568 
L 385.236067 215.568 
L 388.548868 215.568 
L 391.86167 215.568 
L 395.174471 215.568 
L 398.487273 215.568 
" clip-path="url(#pf99fe68b95)" style="fill: none; stroke: #ff7f0e; stroke-width: 1.5; stroke-linecap: square"/>
   </g>
   <g id="line2d_25">
    <path d="M 73.832727 295.488 
L 77.145529 295.488 
L 80.45833 295.488 
L 83.771132 295.488 
L 87.083933 295.488 
L 90.396735 295.488 
L 93.709536 295.488 
L 97.022338 295.488 
L 100.335139 295.488 
L 103.647941 295.488 
L 106.960742 295.488 
L 110.273544 295.488 
L 113.586345 295.488 
L 116.899147 295.488 
L 120.211948 295.488 
L 123.52475 295.488 
L 126.837551 295.488 
L 130.150353 295.488 
L 133.463154 295.488 
L 136.775955 295.488 
L 140.088757 295.488 
L 143.401558 295.488 
L 146.71436 295.488 
L 150.027161 295.488 
L 153.339963 295.488 
L 156.652764 295.488 
L 159.965566 295.488 
L 163.278367 295.488 
L 166.591169 295.488 
L 169.90397 252.288 
L 173.216772 252.288 
L 176.529573 250.128 
L 179.842375 250.128 
L 183.155176 250.128 
L 186.467978 250.128 
L 189.780779 250.128 
L 193.093581 250.128 
L 196.406382 114.048 
L 199.719184 111.888 
L 203.031985 111.888 
L 206.344787 111.888 
L 209.657588 111.888 
L 212.97039 109.728 
L 216.283191 109.728 
L 219.595993 109.728 
L 222.908794 109.728 
L 226.221596 109.728 
L 229.534397 109.728 
L 232.847199 109.728 
L 236.16 109.728 
L 239.472801 109.728 
L 242.785603 109.728 
L 246.098404 109.728 
L 249.411206 109.728 
L 252.724007 109.728 
L 256.036809 109.728 
L 259.34961 109.728 
L 262.662412 109.728 
L 265.975213 109.728 
L 269.288015 109.728 
L 272.600816 109.728 
L 275.913618 109.728 
L 279.226419 109.728 
L 282.539221 109.728 
L 285.852022 109.728 
L 289.164824 109.728 
L 292.477625 109.728 
L 295.790427 109.728 
L 299.103228 109.728 
L 302.41603 109.728 
L 305.728831 109.728 
L 309.041633 109.728 
L 312.354434 109.728 
L 315.667236 109.728 
L 318.980037 109.728 
L 322.292839 109.728 
L 325.60564 109.728 
L 328.918442 109.728 
L 332.231243 109.728 
L 335.544045 109.728 
L 338.856846 109.728 
L 342.169647 109.728 
L 345.482449 109.728 
L 348.79525 109.728 
L 352.108052 109.728 
L 355.420853 109.728 
L 358.733655 109.728 
L 362.046456 109.728 
L 365.359258 109.728 
L 368.672059 109.728 
L 371.984861 109.728 
L 375.297662 109.728 
L 378.610464 109.728 
L 381.923265 109.728 
L 385.236067 109.728 
L 388.548868 109.728 
L 391.86167 109.728 
L 395.174471 109.728 
L 398.487273 109.728 
" clip-path="url(#pf99fe68b95)" style="fill: none; stroke: #2ca02c; stroke-width: 1.5; stroke-linecap: square"/>
   </g>
   <g id="line2d_26">
    <path d="M 73.832727 295.488 
L 77.145529 295.488 
L 80.45833 295.488 
L 83.771132 295.488 
L 87.083933 295.488 
L 90.396735 295.488 
L 93.709536 295.488 
L 97.022338 295.488 
L 100.335139 295.488 
L 103.647941 295.488 
L 106.960742 295.488 
L 110.273544 241.488 
L 113.586345 241.488 
L 116.899147 241.488 
L 120.211948 241.488 
L 123.52475 241.488 
L 126.837551 241.488 
L 130.150353 241.488 
L 133.463154 241.488 
L 136.775955 241.488 
L 140.088757 241.488 
L 143.401558 241.488 
L 146.71436 241.488 
L 150.027161 241.488 
L 153.339963 241.488 
L 156.652764 241.488 
L 159.965566 241.488 
L 163.278367 241.488 
L 166.591169 241.488 
L 169.90397 241.488 
L 173.216772 241.488 
L 176.529573 241.488 
L 179.842375 241.488 
L 183.155176 241.488 
L 186.467978 241.488 
L 189.780779 241.488 
L 193.093581 241.488 
L 196.406382 241.488 
L 199.719184 241.488 
L 203.031985 241.488 
L 206.344787 241.488 
L 209.657588 241.488 
L 212.97039 241.488 
L 216.283191 241.488 
L 219.595993 241.488 
L 222.908794 241.488 
L 226.221596 241.488 
L 229.534397 241.488 
L 232.847199 241.488 
L 236.16 241.488 
L 239.472801 241.488 
L 242.785603 241.488 
L 246.098404 241.488 
L 249.411206 241.488 
L 252.724007 241.488 
L 256.036809 241.488 
L 259.34961 241.488 
L 262.662412 241.488 
L 265.975213 241.488 
L 269.288015 241.488 
L 272.600816 241.488 
L 275.913618 241.488 
L 279.226419 241.488 
L 282.539221 241.488 
L 285.852022 241.488 
L 289.164824 241.488 
L 292.477625 241.488 
L 295.790427 241.488 
L 299.103228 241.488 
L 302.41603 241.488 
L 305.728831 241.488 
L 309.041633 241.488 
L 312.354434 241.488 
L 315.667236 241.488 
L 318.980037 241.488 
L 322.292839 241.488 
L 325.60564 241.488 
L 328.918442 241.488 
L 332.231243 241.488 
L 335.544045 241.488 
L 338.856846 241.488 
L 342.169647 241.488 
L 345.482449 241.488 
L 348.79525 129.168 
L 352.108052 129.168 
L 355.420853 129.168 
L 358.733655 129.168 
L 362.046456 129.168 
L 365.359258 129.168 
L 368.672059 129.168 
L 371.984861 129.168 
L 375.297662 129.168 
L 378.610464 129.168 
L 381.923265 129.168 
L 385.236067 129.168 
L 388.548868 129.168 
L 391.86167 129.168 
L 395.174471 129.168 
L 398.487273 129.168 
" clip-path="url(#pf99fe68b95)" style="fill: none; stroke: #d62728; stroke-width: 1.5; stroke-linecap: square"/>
   </g>
   <g id="line2d_27">
    <path d="M 73.832727 295.488 
L 77.145529 295.488 
L 80.45833 295.488 
L 83.771132 295.488 
L 87.083933 295.488 
L 90.396735 295.488 
L 93.709536 295.488 
L 97.022338 295.488 
L 100.335139 295.488 
L 103.647941 295.488 
L 106.960742 295.488 
L 110.273544 295.488 
L 113.586345 295.488 
L 116.899147 295.488 
L 120.211948 295.488 
L 123.52475 295.488 
L 126.837551 295.488 
L 130.150353 295.488 
L 133.463154 295.488 
L 136.775955 295.488 
L 140.088757 295.488 
L 143.401558 295.488 
L 146.71436 295.488 
L 150.027161 295.488 
L 153.339963 295.488 
L 156.652764 295.488 
L 159.965566 295.488 
L 163.278367 295.488 
L 166.591169 295.488 
L 169.90397 295.488 
L 173.216772 295.488 
L 176.529573 295.488 
L 179.842375 295.488 
L 183.155176 295.488 
L 186.467978 295.488 
L 189.780779 295.488 
L 193.093581 295.488 
L 196.406382 295.488 
L 199.719184 295.488 
L 203.031985 295.488 
L 206.344787 295.488 
L 209.657588 295.488 
L 212.97039 295.488 
L 216.283191 295.488 
L 219.595993 295.488 
L 222.908794 295.488 
L 226.221596 295.488 
L 229.534397 295.488 
L 232.847199 295.488 
L 236.16 295.488 
L 239.472801 241.488 
L 242.785603 241.488 
L 246.098404 239.328 
L 249.411206 237.168 
L 252.724007 237.168 
L 256.036809 228.528 
L 259.34961 228.528 
L 262.662412 228.528 
L 265.975213 228.528 
L 269.288015 222.048 
L 272.600816 222.048 
L 275.913618 222.048 
L 279.226419 222.048 
L 282.539221 222.048 
L 285.852022 222.048 
L 289.164824 222.048 
L 292.477625 222.048 
L 295.790427 222.048 
L 299.103228 222.048 
L 302.41603 222.048 
L 305.728831 222.048 
L 309.041633 222.048 
L 312.354434 222.048 
L 315.667236 202.608 
L 318.980037 202.608 
L 322.292839 202.608 
L 325.60564 202.608 
L 328.918442 202.608 
L 332.231243 120.528 
L 335.544045 109.728 
L 338.856846 109.728 
L 342.169647 109.728 
L 345.482449 109.728 
L 348.79525 109.728 
L 352.108052 109.728 
L 355.420853 109.728 
L 358.733655 109.728 
L 362.046456 109.728 
L 365.359258 109.728 
L 368.672059 109.728 
L 371.984861 109.728 
L 375.297662 109.728 
L 378.610464 109.728 
L 381.923265 109.728 
L 385.236067 109.728 
L 388.548868 109.728 
L 391.86167 109.728 
L 395.174471 109.728 
L 398.487273 109.728 
" clip-path="url(#pf99fe68b95)" style="fill: none; stroke: #9467bd; stroke-width: 1.5; stroke-linecap: square"/>
   </g>
   <g id="line2d_28">
    <path d="M 73.832727 295.488 
L 77.145529 295.488 
L 80.45833 295.488 
L 83.771132 295.488 
L 87.083933 295.488 
L 90.396735 295.488 
L 93.709536 295.488 
L 97.022338 295.488 
L 100.335139 295.488 
L 103.647941 295.488 
L 106.960742 295.488 
L 110.273544 295.488 
L 113.586345 295.488 
L 116.899147 295.488 
L 120.211948 295.488 
L 123.52475 295.488 
L 126.837551 295.488 
L 130.150353 295.488 
L 133.463154 295.488 
L 136.775955 295.488 
L 140.088757 295.488 
L 143.401558 295.488 
L 146.71436 295.488 
L 150.027161 295.488 
L 153.339963 295.488 
L 156.652764 295.488 
L 159.965566 295.488 
L 163.278367 295.488 
L 166.591169 295.488 
L 169.90397 295.488 
L 173.216772 295.488 
L 176.529573 295.488 
L 179.842375 295.488 
L 183.155176 295.488 
L 186.467978 295.488 
L 189.780779 295.488 
L 193.093581 295.488 
L 196.406382 295.488 
L 199.719184 295.488 
L 203.031985 295.488 
L 206.344787 295.488 
L 209.657588 295.488 
L 212.97039 295.488 
L 216.283191 295.488 
L 219.595993 295.488 
L 222.908794 295.488 
L 226.221596 295.488 
L 229.534397 295.488 
L 232.847199 284.688 
L 236.16 284.688 
L 239.472801 284.688 
L 242.785603 284.688 
L 246.098404 284.688 
L 249.411206 284.688 
L 252.724007 284.688 
L 256.036809 284.688 
L 259.34961 284.688 
L 262.662412 284.688 
L 265.975213 284.688 
L 269.288015 284.688 
L 272.600816 284.688 
L 275.913618 284.688 
L 279.226419 284.688 
L 282.539221 284.688 
L 285.852022 114.048 
L 289.164824 111.888 
L 292.477625 109.728 
L 295.790427 109.728 
L 299.103228 109.728 
L 302.41603 109.728 
L 305.728831 109.728 
L 309.041633 109.728 
L 312.354434 109.728 
L 315.667236 109.728 
L 318.980037 109.728 
L 322.292839 109.728 
L 325.60564 109.728 
L 328.918442 109.728 
L 332.231243 109.728 
L 335.544045 109.728 
L 338.856846 109.728 
L 342.169647 109.728 
L 345.482449 109.728 
L 348.79525 109.728 
L 352.108052 109.728 
L 355.420853 109.728 
L 358.733655 109.728 
L 362.046456 109.728 
L 365.359258 109.728 
L 368.672059 109.728 
L 371.984861 109.728 
L 375.297662 109.728 
L 378.610464 109.728 
L 381.923265 109.728 
L 385.236067 109.728 
L 388.548868 109.728 
L 391.86167 109.728 
L 395.174471 109.728 
L 398.487273 109.728 
" clip-path="url(#pf99fe68b95)" style="fill: none; stroke: #8c564b; stroke-width: 1.5; stroke-linecap: square"/>
   </g>
   <g id="line2d_29">
    <path d="M 73.832727 295.488 
L 77.145529 295.488 
L 80.45833 295.488 
L 83.771132 295.488 
L 87.083933 295.488 
L 90.396735 295.488 
L 93.709536 295.488 
L 97.022338 295.488 
L 100.335139 295.488 
L 103.647941 295.488 
L 106.960742 295.488 
L 110.273544 295.488 
L 113.586345 295.488 
L 116.899147 295.488 
L 120.211948 295.488 
L 123.52475 295.488 
L 126.837551 295.488 
L 130.150353 295.488 
L 133.463154 295.488 
L 136.775955 295.488 
L 140.088757 295.488 
L 143.401558 295.488 
L 146.71436 295.488 
L 150.027161 295.488 
L 153.339963 295.488 
L 156.652764 295.488 
L 159.965566 235.008 
L 163.278367 232.848 
L 166.591169 232.848 
L 169.90397 213.408 
L 173.216772 213.408 
L 176.529573 213.408 
L 179.842375 213.408 
L 183.155176 213.408 
L 186.467978 213.408 
L 189.780779 213.408 
L 193.093581 213.408 
L 196.406382 129.168 
L 199.719184 64.368 
L 203.031985 64.368 
L 206.344787 64.368 
L 209.657588 57.888 
L 212.97039 57.888 
L 216.283191 53.568 
L 219.595993 53.568 
L 222.908794 53.568 
L 226.221596 53.568 
L 229.534397 53.568 
L 232.847199 53.568 
" clip-path="url(#pf99fe68b95)" style="fill: none; stroke: #e377c2; stroke-width: 1.5; stroke-linecap: square"/>
   </g>
   <g id="line2d_30">
    <path d="M 73.832727 295.488 
L 77.145529 295.488 
L 80.45833 295.488 
L 83.771132 295.488 
L 87.083933 295.488 
L 90.396735 295.488 
L 93.709536 295.488 
L 97.022338 295.488 
L 100.335139 295.488 
L 103.647941 295.488 
L 106.960742 295.488 
L 110.273544 295.488 
L 113.586345 295.488 
L 116.899147 295.488 
L 120.211948 295.488 
L 123.52475 295.488 
L 126.837551 295.488 
L 130.150353 295.488 
L 133.463154 295.488 
L 136.775955 295.488 
L 140.088757 295.488 
L 143.401558 295.488 
L 146.71436 295.488 
L 150.027161 295.488 
L 153.339963 295.488 
L 156.652764 295.488 
L 159.965566 295.488 
L 163.278367 295.488 
L 166.591169 295.488 
L 169.90397 295.488 
L 173.216772 295.488 
L 176.529573 295.488 
L 179.842375 295.488 
L 183.155176 295.488 
L 186.467978 295.488 
L 189.780779 295.488 
L 193.093581 295.488 
L 196.406382 295.488 
L 199.719184 295.488 
L 203.031985 295.488 
L 206.344787 295.488 
L 209.657588 295.488 
L 212.97039 295.488 
L 216.283191 295.488 
L 219.595993 295.488 
L 222.908794 295.488 
L 226.221596 295.488 
L 229.534397 295.488 
L 232.847199 295.488 
" clip-path="url(#pf99fe68b95)" style="fill: none; stroke: #7f7f7f; stroke-width: 1.5; stroke-linecap: square"/>
   </g>
   <g id="line2d_31">
    <path d="M 73.832727 295.488 
L 77.145529 295.488 
L 80.45833 124.848 
L 83.771132 114.048 
L 87.083933 114.048 
L 90.396735 114.048 
L 93.709536 114.048 
L 97.022338 114.048 
L 100.335139 114.048 
L 103.647941 114.048 
L 106.960742 114.048 
L 110.273544 114.048 
L 113.586345 114.048 
L 116.899147 114.048 
L 120.211948 114.048 
L 123.52475 114.048 
L 126.837551 114.048 
L 130.150353 114.048 
L 133.463154 114.048 
L 136.775955 114.048 
L 140.088757 114.048 
L 143.401558 114.048 
L 146.71436 114.048 
L 150.027161 114.048 
L 153.339963 114.048 
L 156.652764 114.048 
L 159.965566 114.048 
L 163.278367 114.048 
L 166.591169 114.048 
L 169.90397 114.048 
L 173.216772 114.048 
L 176.529573 114.048 
L 179.842375 111.888 
L 183.155176 111.888 
L 186.467978 111.888 
L 189.780779 111.888 
L 193.093581 111.888 
L 196.406382 111.888 
L 199.719184 111.888 
L 203.031985 111.888 
L 206.344787 111.888 
L 209.657588 111.888 
L 212.97039 111.888 
L 216.283191 111.888 
L 219.595993 111.888 
L 222.908794 111.888 
L 226.221596 111.888 
L 229.534397 111.888 
L 232.847199 111.888 
" clip-path="url(#pf99fe68b95)" style="fill: none; stroke: #bcbd22; stroke-width: 1.5; stroke-linecap: square"/>
   </g>
   <g id="line2d_32">
    <path d="M 73.832727 295.488 
L 77.145529 295.488 
L 80.45833 295.488 
L 83.771132 295.488 
L 87.083933 295.488 
L 90.396735 295.488 
L 93.709536 295.488 
L 97.022338 295.488 
L 100.335139 295.488 
L 103.647941 295.488 
L 106.960742 295.488 
L 110.273544 295.488 
L 113.586345 295.488 
L 116.899147 295.488 
L 120.211948 295.488 
L 123.52475 295.488 
L 126.837551 295.488 
L 130.150353 295.488 
L 133.463154 295.488 
L 136.775955 295.488 
L 140.088757 295.488 
L 143.401558 124.848 
L 146.71436 122.688 
L 150.027161 122.688 
L 153.339963 122.688 
L 156.652764 122.688 
L 159.965566 122.688 
L 163.278367 122.688 
L 166.591169 122.688 
L 169.90397 122.688 
L 173.216772 107.568 
L 176.529573 66.528 
L 179.842375 66.528 
L 183.155176 66.528 
L 186.467978 66.528 
L 189.780779 66.528 
L 193.093581 66.528 
L 196.406382 66.528 
L 199.719184 66.528 
L 203.031985 66.528 
L 206.344787 66.528 
L 209.657588 66.528 
L 212.97039 66.528 
L 216.283191 66.528 
L 219.595993 66.528 
L 222.908794 66.528 
L 226.221596 66.528 
L 229.534397 66.528 
L 232.847199 66.528 
" clip-path="url(#pf99fe68b95)" style="fill: none; stroke: #17becf; stroke-width: 1.5; stroke-linecap: square"/>
   </g>
   <g id="line2d_33">
    <path d="M 73.832727 295.488 
L 77.145529 295.488 
L 80.45833 295.488 
L 83.771132 295.488 
L 87.083933 295.488 
L 90.396735 295.488 
L 93.709536 295.488 
L 97.022338 295.488 
L 100.335139 252.288 
L 103.647941 217.728 
L 106.960742 215.568 
L 110.273544 215.568 
L 113.586345 215.568 
L 116.899147 213.408 
L 120.211948 213.408 
L 123.52475 116.208 
L 126.837551 114.048 
L 130.150353 114.048 
L 133.463154 114.048 
L 136.775955 111.888 
L 140.088757 111.888 
L 143.401558 111.888 
L 146.71436 109.728 
L 150.027161 109.728 
L 153.339963 109.728 
L 156.652764 109.728 
L 159.965566 109.728 
L 163.278367 109.728 
L 166.591169 109.728 
L 169.90397 109.728 
L 173.216772 109.728 
L 176.529573 109.728 
L 179.842375 109.728 
L 183.155176 109.728 
L 186.467978 109.728 
L 189.780779 109.728 
L 193.093581 109.728 
L 196.406382 109.728 
L 199.719184 109.728 
L 203.031985 109.728 
L 206.344787 109.728 
L 209.657588 109.728 
L 212.97039 109.728 
L 216.283191 109.728 
L 219.595993 109.728 
L 222.908794 109.728 
L 226.221596 109.728 
L 229.534397 109.728 
L 232.847199 109.728 
" clip-path="url(#pf99fe68b95)" style="fill: none; stroke: #1f77b4; stroke-width: 1.5; stroke-linecap: square"/>
   </g>
   <g id="line2d_34">
    <path d="M 73.832727 295.488 
L 77.145529 295.488 
L 80.45833 295.488 
L 83.771132 295.488 
L 87.083933 295.488 
L 90.396735 295.488 
L 93.709536 295.488 
L 97.022338 295.488 
L 100.335139 295.488 
L 103.647941 295.488 
L 106.960742 295.488 
L 110.273544 295.488 
L 113.586345 213.408 
L 116.899147 213.408 
L 120.211948 213.408 
L 123.52475 213.408 
L 126.837551 213.408 
L 130.150353 211.248 
L 133.463154 211.248 
L 136.775955 211.248 
L 140.088757 211.248 
L 143.401558 211.248 
L 146.71436 211.248 
L 150.027161 209.088 
L 153.339963 206.928 
L 156.652764 204.768 
L 159.965566 204.768 
L 163.278367 204.768 
L 166.591169 116.208 
L 169.90397 116.208 
L 173.216772 116.208 
L 176.529573 116.208 
L 179.842375 116.208 
L 183.155176 116.208 
L 186.467978 116.208 
L 189.780779 116.208 
L 193.093581 116.208 
L 196.406382 111.888 
L 199.719184 111.888 
L 203.031985 111.888 
L 206.344787 111.888 
L 209.657588 111.888 
L 212.97039 111.888 
L 216.283191 111.888 
L 219.595993 111.888 
L 222.908794 111.888 
L 226.221596 111.888 
L 229.534397 111.888 
L 232.847199 111.888 
" clip-path="url(#pf99fe68b95)" style="fill: none; stroke: #ff7f0e; stroke-width: 1.5; stroke-linecap: square"/>
   </g>
   <g id="line2d_35">
    <path d="M 73.832727 295.488 
L 77.145529 295.488 
L 80.45833 295.488 
L 83.771132 295.488 
L 87.083933 295.488 
L 90.396735 295.488 
L 93.709536 295.488 
L 97.022338 295.488 
L 100.335139 295.488 
L 103.647941 295.488 
L 106.960742 295.488 
L 110.273544 295.488 
L 113.586345 295.488 
L 116.899147 295.488 
L 120.211948 295.488 
L 123.52475 295.488 
L 126.837551 295.488 
L 130.150353 295.488 
L 133.463154 295.488 
L 136.775955 295.488 
L 140.088757 295.488 
L 143.401558 295.488 
L 146.71436 295.488 
L 150.027161 295.488 
L 153.339963 295.488 
L 156.652764 295.488 
L 159.965566 295.488 
L 163.278367 295.488 
L 166.591169 295.488 
L 169.90397 295.488 
L 173.216772 284.688 
L 176.529573 243.648 
L 179.842375 243.648 
L 183.155176 235.008 
L 186.467978 230.688 
L 189.780779 230.688 
L 193.093581 230.688 
L 196.406382 131.328 
L 199.719184 120.528 
L 203.031985 120.528 
L 206.344787 120.528 
L 209.657588 120.528 
L 212.97039 120.528 
L 216.283191 118.368 
L 219.595993 118.368 
L 222.908794 118.368 
L 226.221596 53.568 
L 229.534397 53.568 
L 232.847199 53.568 
" clip-path="url(#pf99fe68b95)" style="fill: none; stroke: #2ca02c; stroke-width: 1.5; stroke-linecap: square"/>
   </g>
   <g id="line2d_36">
    <path d="M 73.832727 250.128 
L 77.145529 243.648 
L 80.45833 243.648 
L 83.771132 243.648 
L 87.083933 107.568 
L 90.396735 107.568 
L 93.709536 107.568 
L 97.022338 107.568 
L 100.335139 107.568 
L 103.647941 107.568 
L 106.960742 107.568 
L 110.273544 107.568 
L 113.586345 107.568 
L 116.899147 107.568 
L 120.211948 107.568 
L 123.52475 107.568 
L 126.837551 107.568 
L 130.150353 107.568 
L 133.463154 107.568 
L 136.775955 107.568 
L 140.088757 107.568 
L 143.401558 107.568 
L 146.71436 107.568 
L 150.027161 107.568 
L 153.339963 107.568 
L 156.652764 107.568 
L 159.965566 107.568 
L 163.278367 107.568 
L 166.591169 107.568 
L 169.90397 107.568 
L 173.216772 107.568 
L 176.529573 107.568 
L 179.842375 107.568 
L 183.155176 107.568 
L 186.467978 107.568 
L 189.780779 107.568 
L 193.093581 107.568 
L 196.406382 107.568 
L 199.719184 107.568 
L 203.031985 107.568 
L 206.344787 107.568 
L 209.657588 107.568 
L 212.97039 107.568 
L 216.283191 107.568 
L 219.595993 107.568 
L 222.908794 107.568 
L 226.221596 107.568 
L 229.534397 107.568 
L 232.847199 107.568 
" clip-path="url(#pf99fe68b95)" style="fill: none; stroke: #d62728; stroke-width: 1.5; stroke-linecap: square"/>
   </g>
   <g id="line2d_37">
    <path d="M 73.832727 295.488 
L 77.145529 127.008 
L 80.45833 116.208 
L 83.771132 111.888 
L 87.083933 111.888 
L 90.396735 111.888 
L 93.709536 111.888 
L 97.022338 109.728 
L 100.335139 109.728 
L 103.647941 109.728 
L 106.960742 109.728 
L 110.273544 109.728 
L 113.586345 109.728 
L 116.899147 109.728 
L 120.211948 109.728 
L 123.52475 109.728 
L 126.837551 109.728 
L 130.150353 109.728 
L 133.463154 109.728 
L 136.775955 109.728 
L 140.088757 109.728 
L 143.401558 109.728 
L 146.71436 109.728 
L 150.027161 109.728 
L 153.339963 109.728 
L 156.652764 109.728 
L 159.965566 109.728 
L 163.278367 109.728 
L 166.591169 109.728 
L 169.90397 109.728 
L 173.216772 109.728 
L 176.529573 109.728 
L 179.842375 109.728 
L 183.155176 109.728 
L 186.467978 109.728 
L 189.780779 109.728 
L 193.093581 109.728 
L 196.406382 109.728 
L 199.719184 109.728 
L 203.031985 109.728 
L 206.344787 109.728 
L 209.657588 109.728 
L 212.97039 109.728 
L 216.283191 109.728 
L 219.595993 109.728 
L 222.908794 109.728 
L 226.221596 109.728 
L 229.534397 109.728 
L 232.847199 109.728 
L 236.16 109.728 
L 239.472801 109.728 
L 242.785603 109.728 
L 246.098404 109.728 
L 249.411206 109.728 
L 252.724007 109.728 
L 256.036809 109.728 
L 259.34961 109.728 
L 262.662412 109.728 
L 265.975213 109.728 
L 269.288015 109.728 
L 272.600816 109.728 
L 275.913618 109.728 
L 279.226419 109.728 
L 282.539221 109.728 
L 285.852022 109.728 
L 289.164824 109.728 
L 292.477625 109.728 
L 295.790427 109.728 
L 299.103228 109.728 
L 302.41603 109.728 
L 305.728831 109.728 
L 309.041633 109.728 
L 312.354434 109.728 
L 315.667236 109.728 
L 318.980037 109.728 
L 322.292839 109.728 
L 325.60564 109.728 
L 328.918442 109.728 
L 332.231243 109.728 
L 335.544045 109.728 
L 338.856846 109.728 
L 342.169647 109.728 
L 345.482449 109.728 
L 348.79525 109.728 
L 352.108052 109.728 
L 355.420853 109.728 
L 358.733655 109.728 
L 362.046456 109.728 
L 365.359258 109.728 
L 368.672059 109.728 
L 371.984861 109.728 
L 375.297662 109.728 
L 378.610464 109.728 
L 381.923265 109.728 
L 385.236067 109.728 
L 388.548868 109.728 
L 391.86167 109.728 
L 395.174471 109.728 
L 398.487273 109.728 
" clip-path="url(#pf99fe68b95)" style="fill: none; stroke: #9467bd; stroke-width: 1.5; stroke-linecap: square"/>
   </g>
   <g id="line2d_38">
    <path d="M 73.832727 129.168 
L 77.145529 111.888 
L 80.45833 109.728 
L 83.771132 107.568 
L 87.083933 107.568 
L 90.396735 107.568 
L 93.709536 107.568 
L 97.022338 107.568 
L 100.335139 107.568 
L 103.647941 107.568 
L 106.960742 107.568 
L 110.273544 107.568 
L 113.586345 107.568 
L 116.899147 107.568 
L 120.211948 107.568 
L 123.52475 107.568 
L 126.837551 107.568 
L 130.150353 107.568 
L 133.463154 107.568 
L 136.775955 107.568 
L 140.088757 107.568 
L 143.401558 107.568 
L 146.71436 107.568 
L 150.027161 107.568 
L 153.339963 107.568 
L 156.652764 107.568 
L 159.965566 107.568 
L 163.278367 107.568 
L 166.591169 107.568 
L 169.90397 107.568 
L 173.216772 107.568 
L 176.529573 107.568 
L 179.842375 107.568 
L 183.155176 107.568 
L 186.467978 107.568 
L 189.780779 107.568 
L 193.093581 107.568 
L 196.406382 107.568 
L 199.719184 107.568 
L 203.031985 107.568 
L 206.344787 107.568 
L 209.657588 107.568 
L 212.97039 107.568 
L 216.283191 107.568 
L 219.595993 107.568 
L 222.908794 107.568 
L 226.221596 107.568 
L 229.534397 107.568 
L 232.847199 107.568 
L 236.16 107.568 
L 239.472801 107.568 
L 242.785603 107.568 
L 246.098404 107.568 
L 249.411206 107.568 
L 252.724007 107.568 
L 256.036809 107.568 
L 259.34961 107.568 
L 262.662412 107.568 
L 265.975213 107.568 
L 269.288015 107.568 
L 272.600816 107.568 
L 275.913618 107.568 
L 279.226419 107.568 
L 282.539221 107.568 
L 285.852022 107.568 
L 289.164824 107.568 
L 292.477625 107.568 
L 295.790427 107.568 
L 299.103228 107.568 
L 302.41603 107.568 
L 305.728831 107.568 
L 309.041633 107.568 
L 312.354434 107.568 
L 315.667236 107.568 
L 318.980037 107.568 
L 322.292839 107.568 
L 325.60564 107.568 
L 328.918442 107.568 
L 332.231243 107.568 
L 335.544045 107.568 
L 338.856846 107.568 
L 342.169647 107.568 
L 345.482449 107.568 
L 348.79525 107.568 
L 352.108052 107.568 
L 355.420853 107.568 
L 358.733655 107.568 
L 362.046456 107.568 
L 365.359258 107.568 
L 368.672059 107.568 
L 371.984861 107.568 
L 375.297662 107.568 
L 378.610464 107.568 
L 381.923265 107.568 
L 385.236067 107.568 
L 388.548868 107.568 
L 391.86167 107.568 
L 395.174471 107.568 
L 398.487273 107.568 
" clip-path="url(#pf99fe68b95)" style="fill: none; stroke: #8c564b; stroke-width: 1.5; stroke-linecap: square"/>
   </g>
   <g id="line2d_39">
    <path d="M 73.832727 109.728 
L 77.145529 107.568 
L 80.45833 107.568 
L 83.771132 107.568 
L 87.083933 107.568 
L 90.396735 107.568 
L 93.709536 107.568 
L 97.022338 107.568 
L 100.335139 107.568 
L 103.647941 107.568 
L 106.960742 107.568 
L 110.273544 107.568 
L 113.586345 107.568 
L 116.899147 107.568 
L 120.211948 107.568 
L 123.52475 107.568 
L 126.837551 107.568 
L 130.150353 107.568 
L 133.463154 107.568 
L 136.775955 107.568 
L 140.088757 107.568 
L 143.401558 107.568 
L 146.71436 107.568 
L 150.027161 107.568 
L 153.339963 107.568 
L 156.652764 107.568 
L 159.965566 107.568 
L 163.278367 107.568 
L 166.591169 107.568 
L 169.90397 107.568 
L 173.216772 107.568 
L 176.529573 107.568 
L 179.842375 107.568 
L 183.155176 107.568 
L 186.467978 107.568 
L 189.780779 107.568 
L 193.093581 107.568 
L 196.406382 107.568 
L 199.719184 107.568 
L 203.031985 107.568 
L 206.344787 107.568 
L 209.657588 107.568 
L 212.97039 107.568 
L 216.283191 107.568 
L 219.595993 107.568 
L 222.908794 107.568 
L 226.221596 107.568 
L 229.534397 107.568 
L 232.847199 107.568 
L 236.16 107.568 
L 239.472801 107.568 
L 242.785603 107.568 
L 246.098404 107.568 
L 249.411206 107.568 
L 252.724007 107.568 
L 256.036809 107.568 
L 259.34961 107.568 
L 262.662412 107.568 
L 265.975213 107.568 
L 269.288015 107.568 
L 272.600816 107.568 
L 275.913618 107.568 
L 279.226419 107.568 
L 282.539221 107.568 
L 285.852022 107.568 
L 289.164824 107.568 
L 292.477625 107.568 
L 295.790427 107.568 
L 299.103228 107.568 
L 302.41603 107.568 
L 305.728831 107.568 
L 309.041633 107.568 
L 312.354434 107.568 
L 315.667236 107.568 
L 318.980037 107.568 
L 322.292839 107.568 
L 325.60564 107.568 
L 328.918442 107.568 
L 332.231243 107.568 
L 335.544045 107.568 
L 338.856846 107.568 
L 342.169647 107.568 
L 345.482449 107.568 
L 348.79525 107.568 
L 352.108052 107.568 
L 355.420853 107.568 
L 358.733655 107.568 
L 362.046456 107.568 
L 365.359258 107.568 
L 368.672059 107.568 
L 371.984861 107.568 
L 375.297662 107.568 
L 378.610464 107.568 
L 381.923265 107.568 
L 385.236067 107.568 
L 388.548868 107.568 
L 391.86167 107.568 
L 395.174471 107.568 
L 398.487273 107.568 
" clip-path="url(#pf99fe68b95)" style="fill: none; stroke: #e377c2; stroke-width: 1.5; stroke-linecap: square"/>
   </g>
   <g id="line2d_40">
    <path d="M 73.832727 295.488 
L 77.145529 237.168 
L 80.45833 230.688 
L 83.771132 226.368 
L 87.083933 226.368 
L 90.396735 226.368 
L 93.709536 226.368 
L 97.022338 226.368 
L 100.335139 226.368 
L 103.647941 226.368 
L 106.960742 226.368 
L 110.273544 226.368 
L 113.586345 226.368 
L 116.899147 217.728 
L 120.211948 217.728 
L 123.52475 217.728 
L 126.837551 217.728 
L 130.150353 217.728 
L 133.463154 217.728 
L 136.775955 217.728 
L 140.088757 217.728 
L 143.401558 217.728 
L 146.71436 217.728 
L 150.027161 215.568 
L 153.339963 215.568 
L 156.652764 215.568 
L 159.965566 215.568 
L 163.278367 215.568 
L 166.591169 215.568 
L 169.90397 215.568 
L 173.216772 215.568 
L 176.529573 215.568 
L 179.842375 215.568 
L 183.155176 215.568 
L 186.467978 215.568 
L 189.780779 215.568 
L 193.093581 215.568 
L 196.406382 215.568 
L 199.719184 215.568 
L 203.031985 215.568 
L 206.344787 215.568 
L 209.657588 215.568 
L 212.97039 215.568 
L 216.283191 215.568 
L 219.595993 215.568 
L 222.908794 215.568 
L 226.221596 215.568 
L 229.534397 215.568 
L 232.847199 215.568 
L 236.16 215.568 
L 239.472801 215.568 
L 242.785603 215.568 
L 246.098404 215.568 
L 249.411206 131.328 
L 252.724007 131.328 
L 256.036809 131.328 
L 259.34961 111.888 
L 262.662412 107.568 
L 265.975213 107.568 
L 269.288015 107.568 
L 272.600816 107.568 
L 275.913618 107.568 
L 279.226419 107.568 
L 282.539221 107.568 
L 285.852022 107.568 
L 289.164824 107.568 
L 292.477625 107.568 
L 295.790427 107.568 
L 299.103228 107.568 
L 302.41603 107.568 
L 305.728831 107.568 
L 309.041633 107.568 
L 312.354434 107.568 
L 315.667236 107.568 
L 318.980037 107.568 
L 322.292839 107.568 
L 325.60564 107.568 
L 328.918442 107.568 
L 332.231243 107.568 
L 335.544045 107.568 
L 338.856846 107.568 
L 342.169647 107.568 
L 345.482449 107.568 
L 348.79525 107.568 
L 352.108052 107.568 
L 355.420853 107.568 
L 358.733655 107.568 
L 362.046456 107.568 
L 365.359258 107.568 
L 368.672059 107.568 
L 371.984861 107.568 
L 375.297662 107.568 
L 378.610464 107.568 
L 381.923265 107.568 
L 385.236067 107.568 
L 388.548868 107.568 
L 391.86167 107.568 
L 395.174471 107.568 
L 398.487273 107.568 
" clip-path="url(#pf99fe68b95)" style="fill: none; stroke: #7f7f7f; stroke-width: 1.5; stroke-linecap: square"/>
   </g>
   <g id="line2d_41">
    <path d="M 73.832727 295.488 
L 77.145529 295.488 
L 80.45833 295.488 
L 83.771132 295.488 
L 87.083933 295.488 
L 90.396735 295.488 
L 93.709536 295.488 
L 97.022338 295.488 
L 100.335139 295.488 
L 103.647941 295.488 
L 106.960742 295.488 
L 110.273544 295.488 
L 113.586345 295.488 
L 116.899147 295.488 
L 120.211948 295.488 
L 123.52475 293.328 
L 126.837551 293.328 
L 130.150353 293.328 
L 133.463154 196.128 
L 136.775955 196.128 
L 140.088757 196.128 
L 143.401558 196.128 
L 146.71436 196.128 
L 150.027161 196.128 
L 153.339963 196.128 
L 156.652764 196.128 
L 159.965566 196.128 
L 163.278367 196.128 
L 166.591169 196.128 
L 169.90397 94.608 
L 173.216772 94.608 
L 176.529573 94.608 
L 179.842375 94.608 
L 183.155176 94.608 
L 186.467978 94.608 
L 189.780779 94.608 
L 193.093581 94.608 
L 196.406382 94.608 
L 199.719184 94.608 
L 203.031985 94.608 
L 206.344787 94.608 
L 209.657588 94.608 
L 212.97039 94.608 
L 216.283191 94.608 
L 219.595993 94.608 
L 222.908794 94.608 
L 226.221596 94.608 
L 229.534397 94.608 
L 232.847199 94.608 
L 236.16 94.608 
L 239.472801 94.608 
L 242.785603 94.608 
L 246.098404 94.608 
L 249.411206 94.608 
L 252.724007 94.608 
L 256.036809 94.608 
L 259.34961 94.608 
L 262.662412 94.608 
L 265.975213 94.608 
L 269.288015 94.608 
L 272.600816 94.608 
L 275.913618 94.608 
L 279.226419 94.608 
L 282.539221 94.608 
L 285.852022 94.608 
L 289.164824 94.608 
L 292.477625 94.608 
L 295.790427 94.608 
L 299.103228 94.608 
L 302.41603 94.608 
L 305.728831 94.608 
L 309.041633 94.608 
L 312.354434 94.608 
L 315.667236 94.608 
L 318.980037 94.608 
L 322.292839 94.608 
L 325.60564 94.608 
L 328.918442 94.608 
L 332.231243 94.608 
L 335.544045 94.608 
L 338.856846 94.608 
L 342.169647 94.608 
L 345.482449 94.608 
L 348.79525 94.608 
L 352.108052 94.608 
L 355.420853 94.608 
L 358.733655 94.608 
L 362.046456 94.608 
L 365.359258 94.608 
L 368.672059 94.608 
L 371.984861 94.608 
L 375.297662 94.608 
L 378.610464 94.608 
L 381.923265 94.608 
L 385.236067 94.608 
L 388.548868 94.608 
L 391.86167 94.608 
L 395.174471 94.608 
L 398.487273 94.608 
" clip-path="url(#pf99fe68b95)" style="fill: none; stroke: #bcbd22; stroke-width: 1.5; stroke-linecap: square"/>
   </g>
   <g id="line2d_42">
    <path d="M 73.832727 202.608 
L 77.145529 202.608 
L 80.45833 202.608 
L 83.771132 202.608 
L 87.083933 62.208 
L 90.396735 62.208 
L 93.709536 62.208 
L 97.022338 62.208 
L 100.335139 62.208 
L 103.647941 62.208 
L 106.960742 62.208 
L 110.273544 62.208 
L 113.586345 62.208 
L 116.899147 62.208 
L 120.211948 62.208 
L 123.52475 62.208 
L 126.837551 62.208 
L 130.150353 62.208 
L 133.463154 62.208 
L 136.775955 55.728 
L 140.088757 55.728 
L 143.401558 55.728 
L 146.71436 55.728 
L 150.027161 55.728 
L 153.339963 55.728 
L 156.652764 55.728 
L 159.965566 55.728 
L 163.278367 55.728 
L 166.591169 55.728 
L 169.90397 55.728 
L 173.216772 53.568 
L 176.529573 53.568 
L 179.842375 53.568 
L 183.155176 53.568 
L 186.467978 53.568 
L 189.780779 53.568 
L 193.093581 53.568 
L 196.406382 53.568 
L 199.719184 53.568 
L 203.031985 53.568 
L 206.344787 53.568 
L 209.657588 53.568 
L 212.97039 53.568 
L 216.283191 53.568 
L 219.595993 53.568 
L 222.908794 53.568 
L 226.221596 53.568 
L 229.534397 53.568 
L 232.847199 53.568 
L 236.16 53.568 
L 239.472801 53.568 
L 242.785603 53.568 
L 246.098404 53.568 
L 249.411206 53.568 
L 252.724007 53.568 
L 256.036809 53.568 
L 259.34961 53.568 
L 262.662412 53.568 
L 265.975213 53.568 
L 269.288015 53.568 
L 272.600816 53.568 
L 275.913618 53.568 
L 279.226419 53.568 
L 282.539221 53.568 
L 285.852022 53.568 
L 289.164824 53.568 
L 292.477625 53.568 
L 295.790427 53.568 
L 299.103228 53.568 
L 302.41603 53.568 
L 305.728831 53.568 
L 309.041633 53.568 
L 312.354434 53.568 
L 315.667236 53.568 
L 318.980037 53.568 
L 322.292839 53.568 
L 325.60564 53.568 
L 328.918442 53.568 
L 332.231243 53.568 
L 335.544045 53.568 
L 338.856846 53.568 
L 342.169647 53.568 
L 345.482449 53.568 
L 348.79525 53.568 
L 352.108052 53.568 
L 355.420853 53.568 
L 358.733655 53.568 
L 362.046456 53.568 
L 365.359258 53.568 
L 368.672059 53.568 
L 371.984861 53.568 
L 375.297662 53.568 
L 378.610464 53.568 
L 381.923265 53.568 
L 385.236067 53.568 
L 388.548868 53.568 
L 391.86167 53.568 
L 395.174471 53.568 
L 398.487273 53.568 
" clip-path="url(#pf99fe68b95)" style="fill: none; stroke: #17becf; stroke-width: 1.5; stroke-linecap: square"/>
   </g>
   <g id="line2d_43">
    <path d="M 73.832727 295.488 
L 77.145529 295.488 
L 80.45833 295.488 
L 83.771132 122.688 
L 87.083933 118.368 
L 90.396735 118.368 
L 93.709536 118.368 
L 97.022338 118.368 
L 100.335139 118.368 
L 103.647941 118.368 
L 106.960742 118.368 
L 110.273544 118.368 
L 113.586345 118.368 
L 116.899147 118.368 
L 120.211948 118.368 
L 123.52475 118.368 
L 126.837551 118.368 
L 130.150353 118.368 
L 133.463154 118.368 
L 136.775955 118.368 
L 140.088757 118.368 
L 143.401558 118.368 
L 146.71436 118.368 
L 150.027161 118.368 
L 153.339963 118.368 
L 156.652764 118.368 
L 159.965566 118.368 
L 163.278367 118.368 
L 166.591169 118.368 
L 169.90397 118.368 
L 173.216772 118.368 
L 176.529573 118.368 
L 179.842375 118.368 
L 183.155176 118.368 
L 186.467978 118.368 
L 189.780779 118.368 
L 193.093581 118.368 
L 196.406382 118.368 
L 199.719184 118.368 
L 203.031985 118.368 
L 206.344787 118.368 
L 209.657588 118.368 
L 212.97039 118.368 
L 216.283191 118.368 
L 219.595993 118.368 
L 222.908794 118.368 
L 226.221596 111.888 
L 229.534397 111.888 
L 232.847199 111.888 
L 236.16 111.888 
L 239.472801 111.888 
L 242.785603 111.888 
L 246.098404 111.888 
L 249.411206 111.888 
L 252.724007 111.888 
L 256.036809 111.888 
L 259.34961 111.888 
L 262.662412 111.888 
L 265.975213 111.888 
L 269.288015 111.888 
L 272.600816 111.888 
L 275.913618 111.888 
L 279.226419 111.888 
L 282.539221 111.888 
L 285.852022 111.888 
L 289.164824 111.888 
L 292.477625 111.888 
L 295.790427 111.888 
L 299.103228 111.888 
L 302.41603 111.888 
L 305.728831 111.888 
L 309.041633 111.888 
L 312.354434 111.888 
L 315.667236 111.888 
L 318.980037 111.888 
L 322.292839 111.888 
L 325.60564 111.888 
L 328.918442 111.888 
L 332.231243 111.888 
L 335.544045 111.888 
L 338.856846 111.888 
L 342.169647 111.888 
L 345.482449 111.888 
L 348.79525 111.888 
L 352.108052 111.888 
L 355.420853 111.888 
L 358.733655 111.888 
L 362.046456 111.888 
L 365.359258 111.888 
L 368.672059 111.888 
L 371.984861 109.728 
L 375.297662 109.728 
L 378.610464 109.728 
L 381.923265 109.728 
L 385.236067 109.728 
L 388.548868 109.728 
L 391.86167 109.728 
L 395.174471 109.728 
L 398.487273 109.728 
" clip-path="url(#pf99fe68b95)" style="fill: none; stroke: #1f77b4; stroke-width: 1.5; stroke-linecap: square"/>
   </g>
   <g id="line2d_44">
    <path d="M 73.832727 295.488 
L 77.145529 243.648 
L 80.45833 241.488 
L 83.771132 241.488 
L 87.083933 241.488 
L 90.396735 241.488 
L 93.709536 241.488 
L 97.022338 116.208 
L 100.335139 116.208 
L 103.647941 111.888 
L 106.960742 111.888 
L 110.273544 111.888 
L 113.586345 111.888 
L 116.899147 111.888 
L 120.211948 111.888 
L 123.52475 111.888 
L 126.837551 111.888 
L 130.150353 111.888 
L 133.463154 111.888 
L 136.775955 111.888 
L 140.088757 111.888 
L 143.401558 111.888 
L 146.71436 111.888 
L 150.027161 111.888 
L 153.339963 111.888 
L 156.652764 111.888 
L 159.965566 111.888 
L 163.278367 111.888 
L 166.591169 111.888 
L 169.90397 111.888 
L 173.216772 111.888 
L 176.529573 111.888 
L 179.842375 111.888 
L 183.155176 111.888 
L 186.467978 111.888 
L 189.780779 109.728 
L 193.093581 109.728 
L 196.406382 109.728 
L 199.719184 109.728 
L 203.031985 109.728 
L 206.344787 109.728 
L 209.657588 109.728 
L 212.97039 109.728 
L 216.283191 109.728 
L 219.595993 109.728 
L 222.908794 109.728 
L 226.221596 109.728 
L 229.534397 109.728 
L 232.847199 109.728 
L 236.16 109.728 
L 239.472801 109.728 
L 242.785603 109.728 
L 246.098404 109.728 
L 249.411206 109.728 
L 252.724007 109.728 
L 256.036809 109.728 
L 259.34961 109.728 
L 262.662412 107.568 
L 265.975213 107.568 
L 269.288015 107.568 
L 272.600816 107.568 
L 275.913618 107.568 
L 279.226419 107.568 
L 282.539221 107.568 
L 285.852022 107.568 
L 289.164824 107.568 
L 292.477625 107.568 
L 295.790427 107.568 
L 299.103228 107.568 
L 302.41603 107.568 
L 305.728831 107.568 
L 309.041633 107.568 
L 312.354434 107.568 
L 315.667236 107.568 
L 318.980037 107.568 
L 322.292839 107.568 
L 325.60564 107.568 
L 328.918442 107.568 
L 332.231243 107.568 
L 335.544045 107.568 
L 338.856846 107.568 
L 342.169647 107.568 
L 345.482449 107.568 
L 348.79525 107.568 
L 352.108052 107.568 
L 355.420853 107.568 
L 358.733655 107.568 
L 362.046456 107.568 
L 365.359258 107.568 
L 368.672059 107.568 
L 371.984861 107.568 
L 375.297662 107.568 
L 378.610464 107.568 
L 381.923265 107.568 
L 385.236067 107.568 
L 388.548868 107.568 
L 391.86167 107.568 
L 395.174471 107.568 
L 398.487273 107.568 
" clip-path="url(#pf99fe68b95)" style="fill: none; stroke: #ff7f0e; stroke-width: 1.5; stroke-linecap: square"/>
   </g>
   <g id="patch_3">
    <path d="M 57.6 307.584 
L 57.6 41.472 
" style="fill: none; stroke: #000000; stroke-width: 0.8; stroke-linejoin: miter; stroke-linecap: square"/>
   </g>
   <g id="patch_4">
    <path d="M 414.72 307.584 
L 414.72 41.472 
" style="fill: none; stroke: #000000; stroke-width: 0.8; stroke-linejoin: miter; stroke-linecap: square"/>
   </g>
   <g id="patch_5">
    <path d="M 57.6 307.584 
L 414.72 307.584 
" style="fill: none; stroke: #000000; stroke-width: 0.8; stroke-linejoin: miter; stroke-linecap: square"/>
   </g>
   <g id="patch_6">
    <path d="M 57.6 41.472 
L 414.72 41.472 
" style="fill: none; stroke: #000000; stroke-width: 0.8; stroke-linejoin: miter; stroke-linecap: square"/>
   </g>
   <g id="text_15">
    <!-- Fitness over 100 Generations -->
    <g transform="translate(148.228125 35.472) scale(0.12 -0.12)">
     <defs>
      <path id="DejaVuSans-20" transform="scale(0.015625)"/>
      <path id="DejaVuSans-76" d="M 191 3500 
L 800 3500 
L 1894 563 
L 2988 3500 
L 3597 3500 
L 2284 0 
L 1503 0 
L 191 3500 
z
" transform="scale(0.015625)"/>
     </defs>
     <use xlink:href="#DejaVuSans-46"/>
     <use xlink:href="#DejaVuSans-69" x="50.269531"/>
     <use xlink:href="#DejaVuSans-74" x="78.052734"/>
     <use xlink:href="#DejaVuSans-6e" x="117.261719"/>
     <use xlink:href="#DejaVuSans-65" x="180.640625"/>
     <use xlink:href="#DejaVuSans-73" x="242.164062"/>
     <use xlink:href="#DejaVuSans-73" x="294.263672"/>
     <use xlink:href="#DejaVuSans-20" x="346.363281"/>
     <use xlink:href="#DejaVuSans-6f" x="378.150391"/>
     <use xlink:href="#DejaVuSans-76" x="439.332031"/>
     <use xlink:href="#DejaVuSans-65" x="498.511719"/>
     <use xlink:href="#DejaVuSans-72" x="560.035156"/>
     <use xlink:href="#DejaVuSans-20" x="601.148438"/>
     <use xlink:href="#DejaVuSans-31" x="632.935547"/>
     <use xlink:href="#DejaVuSans-30" x="696.558594"/>
     <use xlink:href="#DejaVuSans-30" x="760.181641"/>
     <use xlink:href="#DejaVuSans-20" x="823.804688"/>
     <use xlink:href="#DejaVuSans-47" x="855.591797"/>
     <use xlink:href="#DejaVuSans-65" x="933.082031"/>
     <use xlink:href="#DejaVuSans-6e" x="994.605469"/>
     <use xlink:href="#DejaVuSans-65" x="1057.984375"/>
     <use xlink:href="#DejaVuSans-72" x="1119.507812"/>
     <use xlink:href="#DejaVuSans-61" x="1160.621094"/>
     <use xlink:href="#DejaVuSans-74" x="1221.900391"/>
     <use xlink:href="#DejaVuSans-69" x="1261.109375"/>
     <use xlink:href="#DejaVuSans-6f" x="1288.892578"/>
     <use xlink:href="#DejaVuSans-6e" x="1350.074219"/>
     <use xlink:href="#DejaVuSans-73" x="1413.453125"/>
    </g>
   </g>
  </g>
 </g>
 <defs>
  <clipPath id="pf99fe68b95">
   <rect x="57.6" y="41.472" width="357.12" height="266.112"/>
  </clipPath>
 </defs>
</svg>
